<?xml version="1.0" encoding="utf-8"?>
<!-- Svg Vector Icons : http://www.onlinewebfonts.com/icon -->
<!DOCTYPE svg PUBLIC "-//W3C//DTD SVG 1.1//EN" "http://www.w3.org/Graphics/SVG/1.1/DTD/svg11.dtd">
<svg version="1.1" xmlns="http://www.w3.org/2000/svg" xmlns:xlink="http://www.w3.org/1999/xlink" x="0px" y="0px" viewBox="0 0 1000 1000" enable-background="new 0 0 1000 1000" xml:space="preserve">
<metadata> Svg Vector Icons : http://www.onlinewebfonts.com/icon </metadata>
<g><path d="M515.1,505h22.6v90.5h-22.6V505z"/><path d="M515.1,618.1h22.6v90.5h-22.6V618.1z"/><path d="M492.5,505L492.5,505v90.5l0,0V505z"/><path d="M492.5,618.1L492.5,618.1v90.5l0,0V618.1z"/><path d="M560.3,505h22.6v90.5h-22.6V505z"/><path d="M560.3,618.1L560.3,618.1v90.5l0,0V618.1z"/><path d="M560.3,618.1h22.6v90.5h-22.6V618.1z"/><path d="M560.3,505L560.3,505v90.5l0,0V505z"/><path d="M424.6,505h22.6v90.5h-22.6V505z"/><path d="M379.4,505H402v90.5h-22.6V505z"/><path d="M379.4,618.1H402v90.5h-22.6V618.1z"/><path d="M469.9,505h22.6v90.5h-22.6V505z"/><path d="M500,10C229.4,10,10,229.4,10,500s219.4,490,490,490c270.6,0,490-219.4,490-490S770.6,10,500,10z M638.2,731.2h-289l-75.4-248.8H701L638.2,731.2z M741.2,459.8H243.7v-67.8h61.5l119.2-115.8c-0.5-2.1-0.9-2.5-0.9-4.7c0-13.9,11.2-24.3,25.1-24.3c13.9,0,25.1,11.7,25.1,25.6c0,13.9-11.2,25.4-25.1,25.4c-2.2,0-4.4-3.7-6.4-4.3l-101.5,98.1h293l-91.9-97.7c-1.7,0.4-3.5,2.3-5.3,2.3c-13.9,0-25.1-10.4-25.1-24.3c0-13.9,11.2-24.7,25.1-24.7c13.9,0,25.1,11.5,25.1,25.4c0,2.6-0.5,1.8-1.3,4.2l107.4,114.8h73.5V459.8z"/><path d="M469.9,618.1h22.6v90.5h-22.6V618.1z"/><path d="M424.6,618.1h22.6v90.5h-22.6V618.1z"/></g>
</svg>